<?xml version="1.0" encoding="utf-8"?>
<!-- Generator: Adobe Illustrator 16.0.0, SVG Export Plug-In . SVG Version: 6.00 Build 0)  -->
<!DOCTYPE svg PUBLIC "-//W3C//DTD SVG 1.1//EN" "http://www.w3.org/Graphics/SVG/1.1/DTD/svg11.dtd">
<svg version="1.1" id="Ebene_1" xmlns="http://www.w3.org/2000/svg" xmlns:xlink="http://www.w3.org/1999/xlink" x="0px" y="0px"
	 width="83px" height="6px" viewBox="0 0 83 6" enable-background="new 0 0 83 6" xml:space="preserve">
<path display="none" fill="#F94962" d="M70.264,0.152c0.094,0.145,0.177,0.294,0.25,0.449c0.037,0.126,0.061,0.255,0.072,0.386
	l-0.296,0.27c-3.419-0.14-6.87-0.147-10.319-0.106s-6.893,0.082-10.338,0.292c0.184,0.007,0.366,0.017,0.55,0.022
	c2.944,0.088,5.889,0.169,8.832,0.266c1.183,0.039,2.362,0.117,3.543,0.172c2.689,0.125,5.381,0.233,8.069,0.372
	c2.135,0.111,4.268,0.251,6.4,0.388c1.279,0.082,2.558,0.18,3.835,0.276c0.274,0.021,0.547,0.06,0.844,0.094
	c0.044,0.124,0.11,0.24,0.196,0.344c0.164,0.144,0.086,0.282,0.047,0.422c-0.043,0.123-0.096,0.243-0.156,0.359
	c-0.229-0.009-0.427-0.012-0.624-0.025c-1.328-0.094-2.656-0.189-3.983-0.285c-0.174-0.025-0.352-0.031-0.527-0.014
	c-0.598,0.076-1.203,0.082-1.803,0.017c-2.918-0.12-5.841-0.155-8.764-0.177c-2.846-0.02-5.693-0.065-8.539-0.063
	c-3.35,0.004-6.699,0.045-10.049,0.078c-2.016,0.02-4.031,0.045-6.045,0.088c-1.611,0.034-3.221,0.092-4.83,0.152
	c-2.667,0.1-5.333,0.207-7.998,0.32c-1.835,0.077-3.672,0.157-5.504,0.254c-1.507,0.078-3.013,0.184-4.517,0.276
	c-0.929,0.057-1.859,0.103-2.787,0.167c-1.755,0.123-3.51,0.251-5.263,0.385C9.435,5.415,8.306,5.504,7.185,5.611
	c-0.823,0.054-1.64,0.172-2.441,0.352C4.333,6.068,4.115,5.945,4.11,5.629c0-0.094,0.018-0.188,0.021-0.279
	c0-0.074-0.008-0.148-0.014-0.254C3.902,5.109,3.711,5.125,3.52,5.137c-0.15,0.013-0.301,0.02-0.452,0.018
	C2.601,5.139,2.48,5.053,2.39,4.688C2.373,4.618,2.354,4.549,2.333,4.467C1.974,4.455,1.615,4.481,1.263,4.545
	c-0.197,0.029-0.392,0.073-0.59,0.096C0.338,4.68,0.127,4.576,0.067,4.34c-0.03-0.151-0.05-0.305-0.062-0.458
	C0.303,3.729,0.631,3.633,0.97,3.6C2.245,3.355,3.535,3.18,4.833,3.077c2.103-0.166,4.208-0.325,6.313-0.476
	c1.529-0.112,3.058-0.218,4.588-0.319c1.379-0.092,2.76-0.171,4.138-0.264c1.906-0.128,3.811-0.264,5.716-0.396
	c1.304-0.091,2.608-0.182,3.913-0.273c2.432-0.171,4.864-0.347,7.297-0.512c0.978-0.066,1.958-0.107,2.938-0.162
	c1.206-0.068,2.41-0.15,3.616-0.206c2.011-0.092,4.023-0.165,6.036-0.249C53.664,0.042,57.943,0,62.229,0.002
	c1.663,0,3.325,0.013,4.987,0.039C68.214,0.057,69.219,0.112,70.264,0.152z M19.006,3.188c0.714,0.063,7.903-0.188,8.828-0.28
	c0.036-0.004,0.066-0.041,0.099-0.063c-0.008-0.154-0.117-0.249-0.324-0.246c-0.352,0.003-0.705,0.015-1.055,0.04
	c-1.253,0.088-2.504,0.184-3.757,0.275C21.534,3.006,20.27,3.097,19.006,3.188z"/>
</svg>
